<mxfile host="app.diagrams.net" modified="2024-05-24T13:53:59.319Z" agent="Mozilla/5.0 (Macintosh; Intel Mac OS X 10_15_7) AppleWebKit/537.36 (KHTML, like Gecko) Chrome/124.0.0.0 Safari/537.36" etag="BHOx_kP0_6h1u7YezjVM" version="24.4.8" type="github">
  <diagram name="Seite-1" id="Y43H9jN5pLr9feAMpJEc">
    <mxGraphModel dx="1054" dy="646" grid="1" gridSize="10" guides="1" tooltips="1" connect="1" arrows="1" fold="1" page="1" pageScale="1" pageWidth="827" pageHeight="1169" math="0" shadow="0">
      <root>
        <mxCell id="0" />
        <mxCell id="1" parent="0" />
        <mxCell id="ihaHcgKqw0zsAqzAZQKC-1" value="testing" style="rounded=0;whiteSpace=wrap;html=1;" parent="1" vertex="1">
          <mxGeometry x="230" y="320" width="350" height="60" as="geometry" />
        </mxCell>
        <mxCell id="ihaHcgKqw0zsAqzAZQKC-5" value="" style="edgeStyle=orthogonalEdgeStyle;rounded=0;orthogonalLoop=1;jettySize=auto;html=1;" parent="1" source="ihaHcgKqw0zsAqzAZQKC-2" target="ihaHcgKqw0zsAqzAZQKC-3" edge="1">
          <mxGeometry relative="1" as="geometry" />
        </mxCell>
        <mxCell id="ihaHcgKqw0zsAqzAZQKC-2" value="ansible" style="rounded=0;whiteSpace=wrap;html=1;" parent="1" vertex="1">
          <mxGeometry x="230" y="220" width="350" height="60" as="geometry" />
        </mxCell>
        <mxCell id="ihaHcgKqw0zsAqzAZQKC-6" value="" style="edgeStyle=orthogonalEdgeStyle;rounded=0;orthogonalLoop=1;jettySize=auto;html=1;" parent="1" source="ihaHcgKqw0zsAqzAZQKC-3" target="ihaHcgKqw0zsAqzAZQKC-4" edge="1">
          <mxGeometry relative="1" as="geometry" />
        </mxCell>
        <mxCell id="ihaHcgKqw0zsAqzAZQKC-3" value="terraform" style="rounded=0;whiteSpace=wrap;html=1;" parent="1" vertex="1">
          <mxGeometry x="230" y="110" width="350" height="60" as="geometry" />
        </mxCell>
        <mxCell id="ihaHcgKqw0zsAqzAZQKC-4" value="argocd" style="rounded=0;whiteSpace=wrap;html=1;" parent="1" vertex="1">
          <mxGeometry x="230" y="10" width="350" height="60" as="geometry" />
        </mxCell>
      </root>
    </mxGraphModel>
  </diagram>
</mxfile>
